<svg width="60" height="60" viewBox="0 0 60 60" fill="none" xmlns="http://www.w3.org/2000/svg">
<g filter="url(#filter0_ii_65_1534)">
<path d="M30.0002 0C19.357 0 10.7271 8.6299 10.7271 19.2731C10.7271 28.0863 16.6459 35.5192 24.724 37.8147C25.646 38.0767 26.3298 38.8896 26.3298 39.848V42.401C26.3298 43.5056 25.4344 44.401 24.3298 44.401H20.0641C18.9595 44.401 18.0641 45.2964 18.0641 46.401V49.738C18.0641 50.8426 18.9595 51.738 20.0641 51.738H24.3298C25.4343 51.738 26.3298 52.6334 26.3298 53.738V58C26.3298 59.1046 27.2252 60 28.3298 60H31.6668C32.7713 60 33.6668 59.1046 33.6668 58V53.738C33.6668 52.6334 34.5622 51.738 35.6668 51.738H39.9325C41.037 51.738 41.9325 50.8426 41.9325 49.738V46.401C41.9325 45.2964 41.037 44.401 39.9325 44.401H35.6668C34.5622 44.401 33.6668 43.5056 33.6668 42.401V38.197C42.5558 36.4836 49.2733 28.6619 49.2733 19.2731C49.2733 8.6299 40.6434 0 30.0002 0ZM30.0002 7.6639C36.4117 7.6639 41.6094 12.8615 41.6094 19.2731C41.6094 25.6847 36.4118 30.8823 30.0002 30.8823C23.5886 30.8823 18.391 25.6847 18.391 19.2731C18.391 12.8615 23.5886 7.6639 30.0002 7.6639Z" fill="#FF8787"/>
</g>
<defs>
<filter id="filter0_ii_65_1534" x="-1" y="-3" width="61" height="65" filterUnits="userSpaceOnUse" color-interpolation-filters="sRGB">
<feFlood flood-opacity="0" result="BackgroundImageFix"/>
<feBlend mode="normal" in="SourceGraphic" in2="BackgroundImageFix" result="shape"/>
<feColorMatrix in="SourceAlpha" type="matrix" values="0 0 0 0 0 0 0 0 0 0 0 0 0 0 0 0 0 0 127 0" result="hardAlpha"/>
<feOffset dy="-3"/>
<feGaussianBlur stdDeviation="2"/>
<feComposite in2="hardAlpha" operator="arithmetic" k2="-1" k3="1"/>
<feColorMatrix type="matrix" values="0 0 0 0 0 0 0 0 0 0 0 0 0 0 0 0 0 0 0.25 0"/>
<feBlend mode="normal" in2="shape" result="effect1_innerShadow_65_1534"/>
<feColorMatrix in="SourceAlpha" type="matrix" values="0 0 0 0 0 0 0 0 0 0 0 0 0 0 0 0 0 0 127 0" result="hardAlpha"/>
<feOffset dx="-1" dy="2"/>
<feGaussianBlur stdDeviation="1.5"/>
<feComposite in2="hardAlpha" operator="arithmetic" k2="-1" k3="1"/>
<feColorMatrix type="matrix" values="0 0 0 0 1 0 0 0 0 1 0 0 0 0 1 0 0 0 0.57 0"/>
<feBlend mode="normal" in2="effect1_innerShadow_65_1534" result="effect2_innerShadow_65_1534"/>
</filter>
</defs>
</svg>
